<svg xmlns="http://www.w3.org/2000/svg" viewBox="0 0 340.82 93.74"><defs><style>.cls-1{fill:#fff;}.cls-2{fill:#d41f34;}.cls-3{fill:#20295e;}.cls-4{fill:none;stroke:#20295e;stroke-miterlimit:10;}</style></defs><g id="Layer_1" data-name="Layer 1"><rect class="cls-1" x="31.75" y="24.17" width="6.72" height="22.39"/><path class="cls-1" d="M30.41,46.73a4.78,4.78,0,0,1-.75,3.17,3.27,3.27,0,0,1-2.63.92,3.26,3.26,0,0,1-2.64-.92,4.78,4.78,0,0,1-.76-3.17V33.36H16.91V46.6c0,3.13.33,4.64,1.22,6.16,1.49,2.47,5.44,3.42,8.9,3.42s7.4-1,8.88-3.42c.89-1.52,1.22-3,1.22-6.16V33.36H30.41Z" transform="translate(-9.47 -9.19)"/><path class="cls-1" d="M62.35,50.72c-2.86,0-4.31-2.31-4.31-6.16s1.45-6.25,4.31-6.25c2.11,0,3.33,1.28,3.89,3.45L72.07,39C71,36,67.79,33,62.45,33c-7,0-11.26,4.71-11.26,11.59s4.05,11.59,11.13,11.59c5.1,0,8.3-2.47,9.88-6.06l-6.09-2.17A3.73,3.73,0,0,1,62.35,50.72Z" transform="translate(-9.47 -9.19)"/><path class="cls-2" d="M43.8,9.19A34.33,34.33,0,1,0,78.13,43.52,34.33,34.33,0,0,0,43.8,9.19ZM24.39,49.9a3.26,3.26,0,0,0,2.64.92,3.27,3.27,0,0,0,2.63-.92,4.78,4.78,0,0,0,.75-3.17V33.36h6.72V46.6c0,3.13-.33,4.64-1.22,6.16-1.48,2.47-5.43,3.42-8.88,3.42s-7.41-1-8.9-3.42c-.89-1.52-1.22-3-1.22-6.16V33.36h6.72V46.73A4.78,4.78,0,0,0,24.39,49.9Zm16.82,5.86V33.36h6.72v22.4Zm21.11.39c-7.08,0-11.13-4.74-11.13-11.59S55.47,33,62.45,33c5.34,0,8.5,3.06,9.62,6l-5.83,2.8c-.56-2.17-1.78-3.45-3.89-3.45-2.86,0-4.31,2.37-4.31,6.25s1.45,6.16,4.31,6.16a3.73,3.73,0,0,0,3.76-2.8l6.09,2.17C70.62,53.68,67.42,56.15,62.32,56.15Z" transform="translate(-9.47 -9.19)"/><path class="cls-3" d="M102.85,36.37v5.07h11.2v5h-11.2V52h13.28v5.06H97.18V31.34h18.08v5Z" transform="translate(-9.47 -9.19)"/><path class="cls-3" d="M133,41.4c2,3.37,3.78,6.59,3.78,6.59h0s-.22-5.07-.22-8.06V31.34h5.63V57.06h-5.75l-6.09-9.91c-1.44-2.38-3.89-6.92-3.89-6.92h0s.26,4.28.26,8.4v8.43H121V31.34h5.79Z" transform="translate(-9.47 -9.19)"/><path class="cls-3" d="M159.38,30.89c5.71,0,9.08,3.1,10.63,6.58l-4.77,2a5.86,5.86,0,0,0-5.79-3.89c-4.23,0-6.69,3.25-6.69,8.62s2.38,8.74,6.73,8.74c3.75,0,5.45-2.38,5.75-5.45h-7.3v-5h12.22v14.6h-5V54.79a8.79,8.79,0,0,1-6.7,2.73c-7,0-11.38-5.45-11.38-13.32S151.93,30.89,159.38,30.89Z" transform="translate(-9.47 -9.19)"/><path class="cls-3" d="M181.54,57.06h-5.72V31.34h5.72Z" transform="translate(-9.47 -9.19)"/><path class="cls-3" d="M199.56,41.4c2,3.37,3.78,6.59,3.78,6.59h0s-.23-5.07-.23-8.06V31.34h5.64V57.06H203L197,47.15c-1.44-2.38-3.9-6.92-3.9-6.92h0s.26,4.28.26,8.4v8.43h-5.67V31.34h5.78Z" transform="translate(-9.47 -9.19)"/><path class="cls-3" d="M220.6,36.37v5.07h11.19v5H220.6V52h13.28v5.06h-19V31.34H233v5Z" transform="translate(-9.47 -9.19)"/><path class="cls-3" d="M244.46,36.37v5.07h11.2v5h-11.2V52h13.28v5.06h-19V31.34h18.08v5Z" transform="translate(-9.47 -9.19)"/><path class="cls-3" d="M268.33,47.61v9.45h-5.68V31.34h9.65a17.22,17.22,0,0,1,6.12.8,7.44,7.44,0,0,1,5,7.37c0,3.94-2.08,6.47-5.41,7.38l6.39,10.17H277.9l-5.75-9.45Zm0-4.92h4.5a7,7,0,0,0,3.7-.68,2.75,2.75,0,0,0,1.21-2.5A2.73,2.73,0,0,0,276.53,37a6.87,6.87,0,0,0-3.7-.68h-4.5Z" transform="translate(-9.47 -9.19)"/><path class="cls-3" d="M294.22,57.06h-5.71V31.34h5.71Z" transform="translate(-9.47 -9.19)"/><path class="cls-3" d="M312.25,41.4C314.29,44.77,316,48,316,48h0s-.23-5.07-.23-8.06V31.34h5.64V57.06h-5.75l-6.09-9.91c-1.44-2.38-3.89-6.92-3.89-6.92h0s.26,4.28.26,8.4v8.43H300.3V31.34h5.79Z" transform="translate(-9.47 -9.19)"/><path class="cls-3" d="M338.64,30.89c5.71,0,9.08,3.1,10.63,6.58l-4.77,2a5.86,5.86,0,0,0-5.79-3.89c-4.23,0-6.69,3.25-6.69,8.62s2.38,8.74,6.73,8.74c3.75,0,5.45-2.38,5.75-5.45h-7.3v-5h12.22v14.6h-5V54.79a8.79,8.79,0,0,1-6.7,2.73c-7,0-11.39-5.45-11.39-13.32S331.19,30.89,338.64,30.89Z" transform="translate(-9.47 -9.19)"/><path class="cls-3" d="M106.17,96.36a5.65,5.65,0,0,1-5.28,3.19c-4,0-6.16-2.75-6.16-6.68s2.37-6.69,6.16-6.69a5.7,5.7,0,0,1,5.14,3l-2,1.24a3.32,3.32,0,0,0-3.15-2.15c-2.28,0-3.65,1.82-3.65,4.64s1.33,4.57,3.65,4.57a3.29,3.29,0,0,0,3.11-2Z" transform="translate(-9.47 -9.19)"/><path class="cls-3" d="M112.17,90.07c2.76,0,4.53,1.86,4.53,4.77s-1.75,4.71-4.53,4.71-4.52-1.82-4.52-4.71S109.42,90.07,112.17,90.07Zm0,7.62c1.39,0,2.38-1.1,2.38-2.89s-1-2.88-2.38-2.88S109.8,93,109.8,94.8,110.79,97.69,112.17,97.69Z" transform="translate(-9.47 -9.19)"/><path class="cls-3" d="M126.43,91.46a3.76,3.76,0,0,1,3.1-1.41,3,3,0,0,1,2.39.88c.57.64.8,1.27.8,3.26v5.13h-2.17V94.75c0-1.64-.11-2.78-1.74-2.78-1.35,0-2,1-2,2.51v4.84h-2.17V94.75c0-1.64-.11-2.78-1.74-2.78-1.33,0-2,1-2,2.51v4.84h-2.17v-9H121v1.16a3.14,3.14,0,0,1,2.83-1.39,2.9,2.9,0,0,1,2.24.88A3.22,3.22,0,0,1,126.43,91.46Z" transform="translate(-9.47 -9.19)"/><path class="cls-3" d="M137.43,98.37v4.56h-2.16V90.28h2.16v1a3.41,3.41,0,0,1,2.66-1.22c2.45,0,4,2,4,4.79s-1.6,4.71-4,4.71A3.26,3.26,0,0,1,137.43,98.37Zm2.21-.7c1.38,0,2.29-1.08,2.29-2.87s-.91-2.88-2.29-2.88-2.3,1.14-2.3,2.88S138.27,97.67,139.64,97.67Z" transform="translate(-9.47 -9.19)"/><path class="cls-3" d="M146.14,90.28h2.17v4.81a4.57,4.57,0,0,0,.22,1.75,1.37,1.37,0,0,0,1.39.79c1.35,0,1.94-1,1.94-2.5V90.28H154v9h-2.16V98.17a3.06,3.06,0,0,1-2.7,1.38,2.88,2.88,0,0,1-2.22-.87c-.57-.65-.8-1.28-.8-3.27Z" transform="translate(-9.47 -9.19)"/><path class="cls-3" d="M161.88,99.4a7.9,7.9,0,0,1-1.62.15,2.9,2.9,0,0,1-2.28-.78A2.64,2.64,0,0,1,157.6,97V92h-1.93V90.28h1.93V87.13l2.17-.48v3.63h2.11V92h-2.11v4.62c0,.51.07.76.25.93a1.27,1.27,0,0,0,.91.25,5.71,5.71,0,0,0,.95-.08Z" transform="translate(-9.47 -9.19)"/><path class="cls-3" d="M171.89,97.27a4.84,4.84,0,0,1-4.26,2.28c-2.68,0-4.5-1.9-4.5-4.82a4.38,4.38,0,0,1,4.44-4.66c2.89,0,4.28,2,4.28,4.77,0,.15,0,.4,0,.55h-6.59a2.39,2.39,0,0,0,2.5,2.3,3,3,0,0,0,2.64-1.56Zm-6.6-3.49h4.41a2,2,0,0,0-2.13-2A2.21,2.21,0,0,0,165.29,93.78Z" transform="translate(-9.47 -9.19)"/><path class="cls-3" d="M176.15,90.28v1.33a2.67,2.67,0,0,1,2.64-1.56l.34,0v2.21c-.21,0-.42,0-.6,0a2,2,0,0,0-2.13,1.23,5,5,0,0,0-.25,1.79v4.06H174v-9Z" transform="translate(-9.47 -9.19)"/><path class="cls-3" d="M193,89.73a4.27,4.27,0,0,0-3.34-1.56c-1.5,0-2.38.74-2.38,1.73s.63,1.31,2.09,1.64l1.56.34c2.41.55,4.16,1.33,4.16,3.68s-2,4-5.19,4a6.81,6.81,0,0,1-5.62-2.64l1.9-1.37a4.57,4.57,0,0,0,3.84,2c1.73,0,2.62-.72,2.62-1.75s-.89-1.38-2.2-1.67l-1.73-.38c-2.11-.46-3.88-1.35-3.88-3.7s2.15-3.84,4.88-3.84a6.6,6.6,0,0,1,5,2.14Z" transform="translate(-9.47 -9.19)"/><path class="cls-3" d="M203.37,93.57a2.15,2.15,0,0,0-2.11-1.64c-1.44,0-2.35,1.07-2.35,2.87s.93,2.87,2.35,2.87a2.18,2.18,0,0,0,2.17-1.54l1.75.93a4.25,4.25,0,0,1-4,2.49c-2.63,0-4.45-1.67-4.45-4.71s2-4.77,4.45-4.77a4,4,0,0,1,4,2.55Z" transform="translate(-9.47 -9.19)"/><path class="cls-3" d="M209.26,88.61H207.1v-2.2h2.16Zm0,10.71H207.1v-9h2.16Z" transform="translate(-9.47 -9.19)"/><path class="cls-3" d="M220.11,97.27a4.84,4.84,0,0,1-4.26,2.28c-2.68,0-4.5-1.9-4.5-4.82a4.38,4.38,0,0,1,4.44-4.66c2.89,0,4.28,2,4.28,4.77,0,.15,0,.4,0,.55h-6.59a2.39,2.39,0,0,0,2.51,2.3,3,3,0,0,0,2.64-1.56Zm-6.59-3.49h4.4a2,2,0,0,0-2.13-2A2.19,2.19,0,0,0,213.52,93.78Z" transform="translate(-9.47 -9.19)"/><path class="cls-3" d="M230.28,99.32h-2.17V94.75A6.65,6.65,0,0,0,228,93a1.44,1.44,0,0,0-1.59-1c-1.35,0-2,1-2,2.51v4.84h-2.16v-9h2.16v1.16a3.07,3.07,0,0,1,2.81-1.39,2.9,2.9,0,0,1,2.49,1.12c.42.59.61,1.28.61,3Z" transform="translate(-9.47 -9.19)"/><path class="cls-3" d="M238.93,93.57a2.14,2.14,0,0,0-2.11-1.64c-1.44,0-2.35,1.07-2.35,2.87s.93,2.87,2.35,2.87A2.18,2.18,0,0,0,239,96.13l1.75.93a4.24,4.24,0,0,1-4,2.49c-2.62,0-4.45-1.67-4.45-4.71s2-4.77,4.45-4.77a4,4,0,0,1,4,2.55Z" transform="translate(-9.47 -9.19)"/><path class="cls-3" d="M250.86,97.27a4.82,4.82,0,0,1-4.25,2.28c-2.68,0-4.51-1.9-4.51-4.82a4.38,4.38,0,0,1,4.45-4.66c2.89,0,4.27,2,4.27,4.77,0,.15,0,.4,0,.55h-6.6a2.4,2.4,0,0,0,2.51,2.3,3,3,0,0,0,2.64-1.56Zm-6.59-3.49h4.41a2,2,0,0,0-2.13-2A2.21,2.21,0,0,0,244.27,93.78Z" transform="translate(-9.47 -9.19)"/><line class="cls-4" x1="85.83" y1="63.15" x2="340.82" y2="63.15"/></g></svg>